<?xml version="1.0" encoding="UTF-8" standalone="no"?><!DOCTYPE svg PUBLIC "-//W3C//DTD SVG 1.1//EN" "http://www.w3.org/Graphics/SVG/1.1/DTD/svg11.dtd"><svg width="100%" height="100%" viewBox="0 0 25000 8534" version="1.1" xmlns="http://www.w3.org/2000/svg" xmlns:xlink="http://www.w3.org/1999/xlink" xml:space="preserve" xmlns:serif="http://www.serif.com/" style="fill-rule:evenodd;clip-rule:evenodd;stroke-linejoin:round;stroke-miterlimit:2;"><g><g><path d="M25000,2109.27l0,6424.07l-25000,0l0,-5640.21l485.871,-259.37l142.462,-81.218l268.584,-153.157l169.587,-162.99l150.533,-242.497c0,0 295.713,-238.006 334.463,-270.916l0.213,-0.204c4.537,-3.874 13.454,-12.287 25.7,-24.075c66.629,-64.395 231.458,-230.468 326.712,-326.968c39.25,-39.741 66.667,-67.689 70.583,-71.892c15.167,-16.332 252.663,-223.928 252.663,-223.928l293.462,-260.787l491.917,-238.914l368.954,-184.858l356.708,-158.488l256.338,-134.866c-0,-0 260.875,-91.307 280.417,-97.808c19.583,-6.536 191.916,157.95 215.416,178.447c23.542,20.489 482.417,206.221 482.417,206.221l370,192.477l872.5,562.175l661.875,307.025l665.208,441.058l655.417,420.482c0,0 668.416,-1.791 708.25,-10.663c39.625,-8.83 1186.71,-590.216 1195.67,-594.76l0.041,-0.038l355.834,8.956l371.583,-370.495l833.375,-353.172l673.291,-244.508l342.418,342.304l680.541,552.395l249.5,134.08l87.333,46.943l508.709,361.835l342.375,166.276l204.417,75.058l715.166,-358.665l1050.42,-181.609l573.5,-297.566c0,0 599.624,-185.932 635.832,-137.911c10.793,14.328 97.042,4.581 212.877,-16.12c273.207,-48.858 711.041,-158.908 711.041,-158.908l450.25,-32.489l545.54,286.781l167.334,87.971l9.626,2.915l608.917,184.562l521.665,158.109l1047.75,-347.544l606.543,-350.09l870.667,-234.711l322.79,127.123l626.125,528.066l572.626,427.068Z" style="fill:#a2a4d7;fill-rule:nonzero;"/><g><path d="M2520.83,815.124l491.917,-238.914l117.592,-58.922c72.283,-0.45 144.087,-4.823 214.783,-16.478c122.792,-20.255 239.346,-61.941 354.179,-110.1c-25.308,41.236 -56.354,89.912 -69.762,103.315c-24.459,24.45 -225,107.589 -269.042,122.25c-44,14.662 -288.583,39.112 -288.583,39.112l-551.084,159.737Zm1383.88,-514.683c91.1,-40.257 182.813,-78.935 277.417,-108.48c18.333,-5.723 36.667,-11.079 55.042,-16.098l-1.125,5.223l-259.246,107.592l-72.088,11.763Z" style="fill:#e3e4f5;fill-rule:nonzero;"/><path d="M628.333,2552.54l268.584,-153.157l169.587,-162.99l150.533,-242.497c0,0 295.713,-238.006 334.463,-270.916l0.213,-0.204c4.537,-3.874 13.454,-12.287 25.7,-24.075c66.629,-64.395 231.458,-230.468 326.712,-326.968l-338.708,525.65l-259.25,195.555l-83.163,156.492l-185.879,112.462l-68.462,102.674l-340.33,87.974Z" style="fill:#e3e4f5;fill-rule:nonzero;"/><path d="M2579.53,1932.32l658.696,-269.663l215.217,-176.027c-0,-0 136.958,-13.037 169.566,-32.598c32.609,-19.555 260.867,-117.347 260.867,-117.347l267.392,-169.513c-0,-0 273.9,3.261 286.942,13.041c13.041,9.776 244.583,91.273 244.583,91.273l538.041,182.546l189.125,114.095l-417.375,-120.613l-417.416,-120.609l-123.917,-39.116l-97.796,42.377c0,-0 -404.358,247.737 -423.925,254.255c-19.562,6.519 -293.479,32.598 -313.042,39.125c-19.566,6.518 -254.354,52.153 -254.354,52.153l-378.254,169.509l-404.35,87.112Z" style="fill:#e3e4f5;fill-rule:nonzero;"/><path d="M8993.75,2438.49l-362.041,0l-433.709,-130.414c0,0 668.416,-1.791 708.25,-10.663c39.625,-8.83 1186.71,-590.216 1195.67,-594.76l-152.834,338.139l-600,136.912l-355.333,260.786Z" style="fill:#e3e4f5;fill-rule:nonzero;"/><path d="M14751.3,2422.29l715.166,-358.665l1050.42,-181.609l-165.126,122.916l-396.166,102.674l-459.792,83.134l-229.874,151.582l-514.625,79.968Z" style="fill:#e3e4f5;fill-rule:nonzero;"/><path d="M18248,1470.32l-308.874,-39.904c273.207,-48.858 711.041,-158.908 711.041,-158.908l450.25,-32.489l-213.291,149.828l-273.918,19.535l-365.208,61.938Z" style="fill:#e3e4f5;fill-rule:nonzero;"/><path d="M20953.5,1959.36l1047.75,-347.544l606.543,-350.09l-52.167,185.817l-172.833,169.475l-244.584,46.489l-101.082,119.751l-257.585,94.551l-238.041,78.098l-588.001,3.453Z" style="fill:#e3e4f5;fill-rule:nonzero;"/><path d="M11025.2,2366.77l476.083,-162.991l136.958,-133.208l238.042,-81.935l251.125,-56.314l756.5,352.955l-401.083,-91.278l-166.292,-74.974l-280.459,71.717l-277.166,-9.78l-257.625,110.833l-476.083,74.975Z" style="fill:#e3e4f5;fill-rule:nonzero;"/><path d="M17354.5,2282.02c-0,0 316.296,-231.442 329.338,-237.961c13.041,-6.526 211.958,-84.7 211.958,-84.7l166.293,-91.327l127.166,65.19l371.749,127.136l-436.959,-65.199c0,0 -159.79,6.519 -166.29,13.038c-6.543,6.518 -234.792,141.218 -247.833,143.955c-13.043,2.741 -355.422,129.868 -355.422,129.868Z" style="fill:#e3e4f5;fill-rule:nonzero;"/></g><g><path d="M13608.5,1772.17l-144.209,-18.244l-286.916,-156.447l-371.75,-169.529l-221.75,-78.224l-83.875,-293.396l-163.959,-312.939l342.418,342.304l680.541,552.395l249.5,134.08Z" style="fill:#8f8f94;fill-rule:nonzero;"/><path d="M3130.34,517.288l251.362,-125.936l356.708,-158.488l256.338,-134.866c-0,-0 260.875,-91.307 280.417,-97.808c0.375,-0.125 0.833,-0.189 1.333,-0.189c17.708,0 107,80.323 165.333,133.876c-68.666,9.68 -136.958,23.505 -204.666,41.986l38,-175.673c-19.542,6.501 -280.417,97.808 -280.417,97.808l-256.338,134.866l-356.708,158.488l-251.362,125.936Zm568.962,-126.578c20.858,-33.984 37.821,-62.916 37.821,-62.916l167.583,-27.353c-68.491,30.269 -136.637,61.429 -205.404,90.269Z" style="fill:#8f8f94;fill-rule:nonzero;"/></g></g><g><path d="M25000,3691.4l0,4841.94l-25000,0l0,-5474.81l581.708,-63.512l739.125,-67.564l489.129,-228.177l686.913,-203.718c0,-0 448.921,-29.074 467.542,-24.908c18.625,4.161 504.17,42.527 504.17,42.527l432.33,-231.176l654.708,-156.442l580.458,-169.651l502.126,182.688l482.624,312.935l611.25,515.03l458.333,254.292l619.542,202.098l723.912,-58.688l663.963,-63.437l751.25,17.786c0,-0 164.709,-125.666 508.709,-171.567c343.999,-45.901 666.375,-207.429 769.583,-200.016c103.167,7.369 978.25,-52.19 978.25,-52.19l342.916,208.013l376.125,192.851l31.626,12.912l279.749,114.336l818.251,148.366l0.041,0l147.333,26.699c0,0 801.793,40.07 821.334,40.07c19.583,0 887.208,-265.743 923.541,-277.53c36.375,-11.746 987.334,-433.103 987.334,-433.103l776.084,-378.122l830.041,-59.979l689.541,-344.258l498.918,159.737c54.25,43.735 371.665,259.329 616.79,424.735c163.335,110.166 294.585,198.095 294.585,198.095l980.708,57.189l537.25,-122.583c0,-0 469.582,-52.153 541.29,6.498l0.21,0.166c72.292,59.147 465.749,387.993 465.749,387.993l845.96,194.851l436.999,23.2l12.5,0.666l539.5,215.761Z" style="fill:#6772c3;fill-rule:nonzero;"/><g><path d="M1320.83,2927.45l489.129,-228.177l686.913,-203.718l82.667,91.261l-30.996,102.673l-518.463,102.674l-371.754,29.369l-337.496,105.918Z" style="fill:#c2c6e3;fill-rule:nonzero;"/><path d="M3714.3,2513.17l-245.709,0l432.33,-231.176l654.708,-156.442l580.458,-169.651l-613.083,270.7l-241.292,101.049l-469.583,63.566l-97.829,121.954Z" style="fill:#c2c6e3;fill-rule:nonzero;"/><path d="M10399,3318.61l-449.875,-0c0,-0 164.709,-125.666 508.709,-171.567c336.292,-44.872 651.917,-200.261 762.333,-200.261c2.541,-0 4.958,0.079 7.25,0.245c6,0.429 14.667,0.634 25.583,0.634c176.542,0.004 952.667,-52.824 952.667,-52.824l-975,133.663l-322.833,121.667l-277.167,80.431l-231.667,88.012Z" style="fill:#c2c6e3;fill-rule:nonzero;"/><path d="M18355.6,3087.18l-58.709,-381.412l-586.957,-156.447l830.041,-59.979l-184.375,597.838Z" style="fill:#c2c6e3;fill-rule:nonzero;"/><path d="M21913.2,3008.96l-292.666,-24.117l537.25,-122.583c0,-0 192.416,-21.368 349.707,-21.368c88.418,-0 165.792,6.756 191.583,27.866l0.21,0.166l-16.5,42.236l-277.167,-0l-492.417,97.8Z" style="fill:#c2c6e3;fill-rule:nonzero;"/><path d="M24358.9,3576.14l-358.708,-35.863l-358.667,-22.825l-476.459,-260.537l845.96,194.851l436.999,23.2l-89.125,101.174Z" style="fill:#c2c6e3;fill-rule:nonzero;"/></g><g><path d="M6463.21,3429.44l300.749,-182.522l31.875,-136.911l-63.75,-143.455l458.333,254.292l-345.666,127.123l-381.541,81.473Z" style="fill:#34395e;fill-rule:nonzero;"/><path d="M13855.6,3625.04l-375,-58.688l-309.792,32.613l-163.041,-192.351l-51.5,-98.008l279.749,114.336l818.251,148.366l-198.667,53.732Z" style="fill:#34395e;fill-rule:nonzero;"/><path d="M20064.3,3064.36l-534.751,-117.332l492.375,0l323.333,-217.463c163.335,110.166 294.585,198.095 294.585,198.095l-575.542,136.7Z" style="fill:#34395e;fill-rule:nonzero;"/></g></g><g><path d="M25000,4289.65l0,4243.68l-25000,0l0,-4547.08l508.708,37.113c0,-0 548,-23.451 1330.59,-91.927c282.121,-24.658 527.2,-68.394 728.287,-115.169l0.204,-0c356.671,-82.972 574.213,-175.441 611.759,-187.978c58.667,-19.535 771.287,-70.643 771.287,-70.643c0,0 75.834,5.707 182.667,14.579l0.038,-0c196.295,16.327 497.295,43.485 625.254,66.144c103.417,18.327 317.666,3.999 527.041,-10.289c190.75,-13.078 377.5,-26.116 472.584,-14.453c127.458,15.62 453.333,-44.901 695.208,-98.716l0.167,-0c136.458,-30.407 246.083,-58.689 278.291,-69.976c89.375,-31.24 778.75,-262.661 778.75,-262.661l716.583,-32.114l565.917,189.311l517.25,325.764l338.417,213.136c0,-0 896.833,209.553 926.167,219.341c29.375,9.748 1487.46,32.448 1487.46,32.448c0,-0 7.833,-1.292 22.291,-3.624c179.126,-29.24 1378.33,-225.174 1405.5,-234.212c29.334,-9.788 1248.38,-400.072 1248.38,-400.072l452.042,-175.316c-0,0 620.958,114.878 666.958,86.429c45.999,-28.407 1401.75,429.812 1401.75,429.812c-0,0 577.667,0.75 1063.46,0.875c342.542,0.125 639.417,-0.041 655.876,-0.958c39.457,-2.249 847.623,-189.977 860.25,-192.892l0.166,-0.042l714.167,173.941l1002.54,146.283l924.625,-217.093l626.083,70.81l834.084,204.513l1059.21,271.033Z" style="fill:#4b509e;fill-rule:nonzero;"/><g><path d="M2895.83,3833.68l-328.046,-17.41c356.671,-82.972 574.213,-175.441 611.759,-187.978c58.667,-19.535 771.287,-70.643 771.287,-70.643c0,0 75.834,5.707 182.667,14.579l-254.5,80.514l-591.871,68.476l-391.296,112.462Z" style="fill:#7e82c9;fill-rule:nonzero;"/><path d="M6826.79,3547.61l-373,-32.697c136.458,-30.407 246.083,-58.689 278.291,-69.976c89.375,-31.24 778.75,-262.661 778.75,-262.661l-281.291,247.166l-402.75,118.168Z" style="fill:#7e82c9;fill-rule:nonzero;"/><path d="M12956.3,4126.54l-871.376,0c179.126,-29.24 1378.33,-225.174 1405.5,-234.212c29.334,-9.788 1248.38,-400.072 1248.38,-400.072l452.042,-175.316l-1225.96,682.976l-494.042,73.101l-514.541,53.523Z" style="fill:#7e82c9;fill-rule:nonzero;"/><path d="M18890.4,4009.7l-567.417,-175.649c63.749,0.042 125.999,0.042 185.083,0.042c258.333,0 457.418,-0.25 470.793,-1c39.457,-2.249 847.623,-189.977 860.25,-192.892l-948.709,369.499Z" style="fill:#7e82c9;fill-rule:nonzero;"/><path d="M22211.6,4009.7l-655.582,-49.317l924.625,-217.093l626.083,70.81l-357.082,34.238l-538.044,161.362Z" style="fill:#7e82c9;fill-rule:nonzero;"/></g><g><path d="M9171.38,4107.46l-498.921,-0l518.505,-146.659l136.957,-217.51l-17.333,-78.056l338.417,213.136l-477.625,229.089Z" style="fill:#353865;fill-rule:nonzero;"/></g></g><g><path d="M25000,5261.45l0,3271.89l-25000,0l0,-4266.67l502.042,228.797l264.462,120.543c0,-0 123.121,92.343 770.204,145.409c18.875,1.541 38.254,3.04 58.042,4.54c697.833,52.149 749.25,55.064 1087.75,43.86c13.958,-0.458 26.417,-0.916 37.583,-1.333l72.5,16.703l91.621,-2.416l0.046,-0.042c59.625,8.206 163.083,19.41 340.917,34.488c732.125,62.104 1506.54,32.614 1506.54,32.614c0,0 631.834,-91.76 746.334,-78.473c114.541,13.287 525.416,-38.862 590.625,-38.862c65.208,0 939.458,-298.065 939.458,-298.065c-0,-0 125.667,-46.026 254.166,-69.518c91.667,-16.786 184.751,-22.076 234.626,8.997c119.833,74.599 759.791,319.475 759.791,319.475c0,-0 309.663,252.83 511.917,292.65c202.208,39.82 397.875,176.732 606.542,267.992c182.208,79.723 391.166,106.797 502.125,210.97c16.166,15.203 30.208,31.989 41.833,50.816c91.375,148.241 295.417,284.403 295.417,284.403l976.916,138.412l1111.67,124.124l887.291,175.732c0,0 789.126,45.651 808.667,45.651c19.584,0 553.167,-14.453 553.167,-14.453l297.416,-186.395l179.876,-1.25l84.749,-39.111l312.584,-68.644c-0,0 179.834,-110.67 192.875,-110.67c13.042,-0 146.75,48.9 146.75,48.9l189.125,140.16c0,0 11.208,7.206 28.75,18.452l0.042,0.042c58.583,37.529 187.833,120.084 206.708,129.664c24.542,12.413 225.583,139.578 261.917,148.908c36.291,9.372 251.874,47.734 251.874,47.734c0,-0 247.543,34.155 256.667,29.823c9.125,-4.374 181.833,-126.457 181.833,-126.457l216.126,-97.925l340.625,-42.652l212.833,-91.719l0.208,-0.083l2.834,-1.208l7.082,-4.082l1.125,-0.625l0.043,-0l193.292,-110.921l260.875,-61.937l564.125,127.123l154.582,80.723l412.793,82.305c-0,0 241.29,74.975 264.123,81.473c22.834,6.539 860.877,62.895 860.877,62.895l1044.21,-81.306l329.166,-209.762l0.084,0l253.709,-6.539l397.833,-35.863l9.625,-3.416l633.041,-224.34l229.083,-101.59l298.541,-147.867l228.626,-24.783l64.792,-116.669l566.083,-160.112l310.25,9.497Z" style="fill:#202f79;fill-rule:nonzero;"/><g><path d="M450.167,4981.08l107.629,-303.147l-55.754,-182.48l264.462,120.543c0,-0 123.121,92.343 770.204,145.409l-600.67,56.689l-485.871,162.986Z" style="fill:#182043;fill-rule:nonzero;"/><path d="M9450.17,6122.03l427.125,-617.04c16.166,15.203 30.208,31.989 41.833,50.816c91.375,148.241 295.417,284.403 295.417,284.403l-764.375,281.821Z" style="fill:#182043;fill-rule:nonzero;"/><path d="M18748.7,6280.1l-0.126,0c-4.874,-1.624 194.043,-223.299 194.043,-223.299l154.582,80.723c-0,-0 -339.874,142.576 -348.499,142.576Z" style="fill:#182043;fill-rule:nonzero;"/><path d="M24060.5,5913.39l-32.583,-239.585l-197.668,-120.293l228.626,-24.783l50.541,79.89l-48.916,304.771Z" style="fill:#182043;fill-rule:nonzero;"/><path d="M15984.4,6111.11l-165.708,-24.95l-55.459,-91.26l-143.458,-91.302c13.042,-0 146.75,48.9 146.75,48.9l189.125,140.16c0,0 11.208,7.206 28.75,18.452Z" style="fill:#182043;fill-rule:nonzero;"/></g><g><path d="M6254.54,4990.87c-0,0 -384.792,-71.725 -394.584,-74.974c-0.75,-0.25 -3.999,-0.375 -9.291,-0.375c-64,-0 -430.917,16.661 -430.917,16.661l-361.958,42.402l-326.084,-84.763c0,0 549.417,-79.806 716.417,-79.806c12.125,-0 22.208,0.417 29.917,1.333c12.958,1.5 29.708,2.166 49.292,2.166c153.749,-0 483.499,-41.028 541.333,-41.028c65.208,0 939.458,-298.065 939.458,-298.065c-0,-0 125.667,-46.026 254.166,-69.518l-1007.75,585.967Z" style="fill:#6c7084;fill-rule:nonzero;"/><path d="M15031.2,6187.21l-181.501,-63.936l179.876,-1.25l84.749,-39.111l312.584,-68.644l-283.208,96.342l-112.5,76.599Z" style="fill:#6c7084;fill-rule:nonzero;"/><path d="M16961.6,6467.29c9.125,-4.374 181.833,-126.457 181.833,-126.457l216.126,-97.925l340.625,-42.652l212.833,-91.719l-343.249,182.979l-252.714,32.614l-355.454,143.16Z" style="fill:#6c7084;fill-rule:nonzero;"/><path d="M22288.2,6113.86c0,0 -269.041,-40.736 -279.791,-40.736l253.709,-6.539l397.833,-35.863l9.625,-3.416l-110.709,76.766l-270.667,9.788Z" style="fill:#6c7084;fill-rule:nonzero;"/><path d="M24479.5,5419.52l-355.874,-7.456l566.083,-160.112l-76.542,108.921l-133.667,58.647Z" style="fill:#6c7084;fill-rule:nonzero;"/></g></g><g><path d="M25000,6651.93l0,1881.4l-25000,0l0,-1558.97l771.958,24.284l582.004,-90.844c0,-0 534.492,-68.019 1061.7,-138.411c523.088,-69.852 1087.59,-157.03 1096.38,-158.363l0.079,-0.042l655.458,-352.047c0,0 1003.21,34.322 1056.5,78.223c51.292,42.194 952.167,95.176 1108.96,119.501c6.208,0.958 11.208,1.875 15,2.75c99.25,22.867 1191.58,342.341 1191.58,342.341c0,0 1039.92,53.691 1108.38,73.267c68.5,19.577 1068.38,39.57 1068.38,39.57l718.292,-221.3l616.708,-238.793l1133.17,-306.146l220,-192.602l743.458,-114.002l763.041,-81.556l645.668,420.482l939.124,391.2c0,0 1330.42,136.912 1633.7,146.659c303.255,9.788 880.422,19.576 1193.46,19.576c313.041,0 763.916,39.112 763.916,39.112l1535,-244.458l602.71,-353.838l759.625,158.987l662.665,41.486c-0,0 499.876,114.378 664.042,143.576c164.166,29.199 745.084,96.384 745.084,96.384l34.333,1.166l0.042,0l909.583,31.406Z" style="fill:#171f3f;fill-rule:nonzero;"/><g><path d="M2436.04,7146.76l-1664.08,-148.116l582.004,-90.844c0,-0 534.492,-68.019 1061.7,-138.411c523.088,-69.852 1087.59,-157.03 1096.38,-158.363l-347.171,263.993l-728.833,271.741Z" style="fill:#4b526b;fill-rule:nonzero;"/><path d="M10100.7,6958.16l-384.333,-43.569l718.292,-221.3l616.708,-238.793l1133.17,-306.146l-352.292,570.181l-973.375,63.603l-758.167,176.024Z" style="fill:#4b526b;fill-rule:nonzero;"/><path d="M20015.4,7011.93l-928.501,-234.712l1535,-244.458l602.71,-353.838l-563.585,598.296l-645.624,234.712Z" style="fill:#4b526b;fill-rule:nonzero;"/></g><g><path d="M6461.58,7051.05l-128.541,-594.382c6.208,0.958 11.208,1.875 15,2.75c99.25,22.867 1191.58,342.341 1191.58,342.341l-818.792,34.156l-259.25,215.135Z" style="fill:#121831;fill-rule:nonzero;"/><path d="M14443.3,6865.73c-0.833,-0 -1.041,-0.167 -0.708,-0.5c14.709,-14.662 391.292,-381.37 391.292,-381.37l-277.166,-303.189l939.124,391.2c0,0 -1018.83,293.859 -1052.54,293.859Z" style="fill:#121831;fill-rule:nonzero;"/></g></g></g></svg>