<?xml version="1.0" encoding="UTF-8" standalone="no" ?>
<!DOCTYPE svg PUBLIC "-//W3C//DTD SVG 1.1//EN" "http://www.w3.org/Graphics/SVG/1.1/DTD/svg11.dtd">
<!--suppress ALL -->
<svg xmlns="http://www.w3.org/2000/svg" xmlns:xlink="http://www.w3.org/1999/xlink" version="1.1" width="61" height="61" viewBox="0 0 61 61" xml:space="preserve">
<desc>Created with Fabric.js 4.6.0</desc>
<defs>
</defs>
<g transform="matrix(1 0 0 1 30.42 30.42)" id="U1X5pFf9fzcK6RkldUz-t"  >
<path style="stroke: none; stroke-width: 1; stroke-dasharray: none; stroke-linecap: butt; stroke-dashoffset: 0; stroke-linejoin: miter; stroke-miterlimit: 4; fill: rgb(0,153,187); fill-rule: nonzero; opacity: 1;" vector-effect="non-scaling-stroke"  transform=" translate(-29.64, -29.64)" d="M 0 29.642 C 0 13.271180000000001 13.27118 0 29.642 0 C 46.01282 0 59.284 13.27118 59.284 29.642 C 59.284 46.01282 46.01282 59.284 29.642 59.284 C 13.271180000000001 59.284 0 46.01282 0 29.642 z" stroke-linecap="round" />
</g>
<g transform="matrix(1 0 0 -1 30.42 30.94)" id="Y--6toscapsTtTfKoColX"  >
<path style="stroke: none; stroke-width: 1; stroke-dasharray: none; stroke-linecap: butt; stroke-dashoffset: 0; stroke-linejoin: miter; stroke-miterlimit: 4; fill: rgb(255,255,255); fill-rule: nonzero; opacity: 1;" vector-effect="non-scaling-stroke"  transform=" translate(-25.97, -22.61)" d="M 39.363 21.192 C 38.44610516893731 21.19780884093253 37.53794123434846 21.37063108221623 36.68299999999999 21.702000000000005 C 36.9412678329975 21.088268798894042 37.06995735050478 20.427798788406918 37.061 19.762 C 37.05326384668106 17.551440175620616 35.613352540575995 15.601020376317992 33.50309134747895 14.94266463499189 C 31.39283015438191 14.28430889366579 29.099317391432503 15.06998132486665 27.836 16.884 C 27.561190856038095 13.850647600206212 25.451849840314765 11.297374339212695 22.52485849314374 10.455074807854782 C 19.597867145972714 9.612775276496869 16.454038986730698 10.654345423474112 14.60896622986835 13.077659965341136 C 12.763893473006004 15.50097450720816 12.596307903169002 18.808607942566383 14.186999999999998 21.405999999999995 C 13.650337935285732 21.26649191916242 13.097457269495784 21.19923149753347 12.542999999999996 21.206 C 8.719532676921416 21.206 5.619999999999999 24.305532676921416 5.619999999999999 28.128999999999998 C 5.619999999999999 31.952467323078583 8.719532676921416 35.052 12.543 35.052 L 39.429 35.052 C 43.23424192633417 35.052 46.319 31.967241926334165 46.319 28.162 C 46.319 24.35675807366583 43.23424192633417 21.272 39.429 21.272 Z" stroke-linecap="round" />
</g>
<!--<g transform="matrix(1 0 0 1 180.83 29.94)" style="" wishlistId="5G3Tst0rv00LM-qvPdk-M"  >-->
<!--		<text xml:space="preserve" font-family="Julius Sans One" font-size="33" font-style="normal" font-weight="normal" line-height="1.16" style="stroke: none; stroke-width: 1; stroke-dasharray: none; stroke-linecap: butt; stroke-dashoffset: 0; stroke-linejoin: miter; stroke-miterlimit: 4; fill: rgb(49,49,49); fill-rule: nonzero; opacity: 1; white-space: pre;" ><tspan x="-112.22" y="10.37" >ØNSKEDISEN</tspan></text>-->
<!--</g>-->
</svg>